<!-- Compact Cards Template Thumbnail -->
<svg viewBox="0 0 300 200" xmlns="http://www.w3.org/2000/svg">
  <!-- Background -->
  <rect width="300" height="200" fill="#f8fafc"/>
  
  <!-- Header -->
  <rect x="0" y="0" width="300" height="35" fill="#e2e8f0"/>
  <text x="150" y="23" text-anchor="middle" font-family="sans-serif" font-size="12" font-weight="bold" fill="#334155">Compact Menu Cards</text>
  
  <!-- Card Layout -->
  <g transform="translate(10, 45)">
    <!-- Row 1 -->
    <rect x="0" y="0" width="85" height="45" rx="6" fill="#ffffff" stroke="#cbd5e1"/>
    <circle cx="15" cy="15" r="8" fill="#10b981"/>
    <text x="28" y="12" font-family="sans-serif" font-size="8" font-weight="600" fill="#1e293b">Fresh Salad</text>
    <text x="28" y="22" font-family="sans-serif" font-size="6" fill="#64748b">Organic greens mix</text>
    <text x="28" y="35" font-family="sans-serif" font-size="8" font-weight="bold" fill="#059669">$9.50</text>
    
    <rect x="95" y="0" width="85" height="45" rx="6" fill="#ffffff" stroke="#cbd5e1"/>
    <circle cx="110" cy="15" r="8" fill="#f59e0b"/>
    <text x="123" y="12" font-family="sans-serif" font-size="8" font-weight="600" fill="#1e293b">Soup Special</text>
    <text x="123" y="22" font-family="sans-serif" font-size="6" fill="#64748b">Daily selection</text>
    <text x="123" y="35" font-family="sans-serif" font-size="8" font-weight="bold" fill="#d97706">$7.25</text>
    
    <rect x="190" y="0" width="85" height="45" rx="6" fill="#ffffff" stroke="#cbd5e1"/>
    <circle cx="205" cy="15" r="8" fill="#ef4444"/>
    <text x="218" y="12" font-family="sans-serif" font-size="8" font-weight="600" fill="#1e293b">Grilled Steak</text>
    <text x="218" y="22" font-family="sans-serif" font-size="6" fill="#64748b">Premium cut</text>
    <text x="218" y="35" font-family="sans-serif" font-size="8" font-weight="bold" fill="#dc2626">$24.99</text>
    
    <!-- Row 2 -->
    <rect x="0" y="55" width="85" height="45" rx="6" fill="#ffffff" stroke="#cbd5e1"/>
    <circle cx="15" cy="70" r="8" fill="#8b5cf6"/>
    <text x="28" y="67" font-family="sans-serif" font-size="8" font-weight="600" fill="#1e293b">Pasta Dish</text>
    <text x="28" y="77" font-family="sans-serif" font-size="6" fill="#64748b">Homemade sauce</text>
    <text x="28" y="90" font-family="sans-serif" font-size="8" font-weight="bold" fill="#7c3aed">$14.75</text>
    
    <rect x="95" y="55" width="85" height="45" rx="6" fill="#ffffff" stroke="#cbd5e1"/>
    <circle cx="110" cy="70" r="8" fill="#06b6d4"/>
    <text x="123" y="67" font-family="sans-serif" font-size="8" font-weight="600" fill="#1e293b">Seafood</text>
    <text x="123" y="77" font-family="sans-serif" font-size="6" fill="#64748b">Fresh catch daily</text>
    <text x="123" y="90" font-family="sans-serif" font-size="8" font-weight="bold" fill="#0891b2">$19.50</text>
    
    <rect x="190" y="55" width="85" height="45" rx="6" fill="#ffffff" stroke="#cbd5e1"/>
    <circle cx="205" cy="70" r="8" fill="#f97316"/>
    <text x="218" y="67" font-family="sans-serif" font-size="8" font-weight="600" fill="#1e293b">Dessert</text>
    <text x="218" y="77" font-family="sans-serif" font-size="6" fill="#64748b">House specialty</text>
    <text x="218" y="90" font-family="sans-serif" font-size="8" font-weight="bold" fill="#ea580c">$6.95</text>
    
    <!-- Row 3 -->
    <rect x="0" y="110" width="85" height="45" rx="6" fill="#ffffff" stroke="#cbd5e1"/>
    <circle cx="15" cy="125" r="8" fill="#84cc16"/>
    <text x="28" y="122" font-family="sans-serif" font-size="8" font-weight="600" fill="#1e293b">Veggie Bowl</text>
    <text x="28" y="132" font-family="sans-serif" font-size="6" fill="#64748b">Healthy option</text>
    <text x="28" y="145" font-family="sans-serif" font-size="8" font-weight="bold" fill="#65a30d">$11.25</text>
    
    <rect x="95" y="110" width="85" height="45" rx="6" fill="#ffffff" stroke="#cbd5e1"/>
    <circle cx="110" cy="125" r="8" fill="#ec4899"/>
    <text x="123" y="122" font-family="sans-serif" font-size="8" font-weight="600" fill="#1e293b">Smoothie</text>
    <text x="123" y="132" font-family="sans-serif" font-size="6" fill="#64748b">Fresh fruit blend</text>
    <text x="123" y="145" font-family="sans-serif" font-size="8" font-weight="bold" fill="#db2777">$5.75</text>
    
    <rect x="190" y="110" width="85" height="45" rx="6" fill="#ffffff" stroke="#cbd5e1"/>
    <circle cx="205" cy="125" r="8" fill="#6366f1"/>
    <text x="218" y="122" font-family="sans-serif" font-size="8" font-weight="600" fill="#1e293b">Coffee</text>
    <text x="218" y="132" font-family="sans-serif" font-size="6" fill="#64748b">Premium beans</text>
    <text x="218" y="145" font-family="sans-serif" font-size="8" font-weight="bold" fill="#4f46e5">$3.50</text>
  </g>
</svg>