<!-- Photo Showcase Template Thumbnail -->
<svg viewBox="0 0 300 200" xmlns="http://www.w3.org/2000/svg">
  <!-- Background -->
  <rect width="300" height="200" fill="#1f2937"/>
  
  <!-- Header -->
  <rect x="0" y="0" width="300" height="45" fill="#111827"/>
  <circle cx="150" cy="15" r="8" fill="#6b7280"/>
  <text x="150" y="35" text-anchor="middle" font-family="sans-serif" font-size="11" font-weight="bold" fill="#ffffff">PHOTO GALLERY MENU</text>
  
  <!-- Main Content -->
  <g transform="translate(15, 55)">
    <!-- Large featured item -->
    <rect x="0" y="0" width="120" height="80" rx="8" fill="#374151"/>
    <rect x="5" y="5" width="110" height="50" rx="4" fill="#4b5563"/>
    <text x="8" y="68" font-family="sans-serif" font-size="9" font-weight="600" fill="#ffffff">Featured Special</text>
    <text x="8" y="78" font-family="sans-serif" font-size="7" fill="#d1d5db">Premium ingredients showcase</text>
    
    <!-- Grid of smaller items -->
    <rect x="135" y="0" width="65" height="35" rx="6" fill="#374151"/>
    <rect x="140" y="5" width="55" height="20" rx="3" fill="#4b5563"/>
    <text x="142" y="32" font-family="sans-serif" font-size="7" font-weight="600" fill="#ffffff">Appetizer</text>
    
    <rect x="210" y="0" width="65" height="35" rx="6" fill="#374151"/>
    <rect x="215" y="5" width="55" height="20" rx="3" fill="#4b5563"/>
    <text x="217" y="32" font-family="sans-serif" font-size="7" font-weight="600" fill="#ffffff">Dessert</text>
    
    <rect x="135" y="45" width="65" height="35" rx="6" fill="#374151"/>
    <rect x="140" y="50" width="55" height="20" rx="3" fill="#4b5563"/>
    <text x="142" y="77" font-family="sans-serif" font-size="7" font-weight="600" fill="#ffffff">Main Course</text>
    
    <rect x="210" y="45" width="65" height="35" rx="6" fill="#374151"/>
    <rect x="215" y="50" width="55" height="20" rx="3" fill="#4b5563"/>
    <text x="217" y="77" font-family="sans-serif" font-size="7" font-weight="600" fill="#ffffff">Beverages</text>
    
    <!-- Bottom row -->
    <rect x="0" y="90" width="90" height="50" rx="6" fill="#374151"/>
    <rect x="5" y="95" width="80" height="30" rx="3" fill="#4b5563"/>
    <text x="8" y="135" font-family="sans-serif" font-size="8" font-weight="600" fill="#ffffff">Signature Collection</text>
    
    <rect x="100" y="90" width="90" height="50" rx="6" fill="#374151"/>
    <rect x="105" y="95" width="80" height="30" rx="3" fill="#4b5563"/>
    <text x="108" y="135" font-family="sans-serif" font-size="8" font-weight="600" fill="#ffffff">Chef's Specials</text>
    
    <rect x="200" y="90" width="70" height="50" rx="6" fill="#374151"/>
    <rect x="205" y="95" width="60" height="30" rx="3" fill="#4b5563"/>
    <text x="208" y="135" font-family="sans-serif" font-size="8" font-weight="600" fill="#ffffff">Seasonal</text>
  </g>
  
  <!-- Accent elements -->
  <circle cx="25" cy="25" r="3" fill="#fbbf24"/>
  <circle cx="275" cy="25" r="3" fill="#fbbf24"/>
</svg>