<!-- QR Menu Studio Main Icon -->
<svg viewBox="0 0 100 100" xmlns="http://www.w3.org/2000/svg">
  <!-- Background with gradient -->
  <defs>
    <linearGradient id="bgGrad" x1="0%" y1="0%" x2="100%" y2="100%">
      <stop offset="0%" style="stop-color:#3b82f6"/>
      <stop offset="100%" style="stop-color:#1e40af"/>
    </linearGradient>
    <linearGradient id="menuGrad" x1="0%" y1="0%" x2="100%" y2="0%">
      <stop offset="0%" style="stop-color:#ffffff"/>
      <stop offset="100%" style="stop-color:#f1f5f9"/>
    </linearGradient>
  </defs>
  
  <!-- Main background circle -->
  <circle cx="50" cy="50" r="45" fill="url(#bgGrad)"/>
  
  <!-- Menu document -->
  <rect x="25" y="20" width="50" height="60" rx="4" fill="url(#menuGrad)" stroke="#e2e8f0" stroke-width="1"/>
  
  <!-- Menu header -->
  <rect x="30" y="25" width="40" height="8" rx="2" fill="#1e293b"/>
  <circle cx="35" cy="29" r="2" fill="#64748b"/>
  
  <!-- Menu items -->
  <rect x="30" y="38" width="35" height="2" rx="1" fill="#64748b"/>
  <rect x="67" y="38" width="6" height="2" rx="1" fill="#059669"/>
  
  <rect x="30" y="44" width="30" height="2" rx="1" fill="#64748b"/>
  <rect x="67" y="44" width="6" height="2" rx="1" fill="#dc2626"/>
  
  <rect x="30" y="50" width="32" height="2" rx="1" fill="#64748b"/>
  <rect x="67" y="50" width="6" height="2" rx="1" fill="#7c3aed"/>
  
  <rect x="30" y="56" width="28" height="2" rx="1" fill="#64748b"/>
  <rect x="67" y="56" width="6" height="2" rx="1" fill="#f59e0b"/>
  
  <!-- QR Code in corner -->
  <rect x="52" y="62" width="18" height="18" rx="2" fill="#1f2937"/>
  <rect x="54" y="64" width="2" height="2" fill="#ffffff"/>
  <rect x="57" y="64" width="2" height="2" fill="#ffffff"/>
  <rect x="63" y="64" width="2" height="2" fill="#ffffff"/>
  <rect x="66" y="64" width="2" height="2" fill="#ffffff"/>
  
  <rect x="54" y="67" width="2" height="2" fill="#ffffff"/>
  <rect x="60" y="67" width="2" height="2" fill="#ffffff"/>
  <rect x="66" y="67" width="2" height="2" fill="#ffffff"/>
  
  <rect x="57" y="70" width="2" height="2" fill="#ffffff"/>
  <rect x="63" y="70" width="2" height="2" fill="#ffffff"/>
  
  <rect x="54" y="73" width="2" height="2" fill="#ffffff"/>
  <rect x="60" y="73" width="2" height="2" fill="#ffffff"/>
  <rect x="66" y="73" width="2" height="2" fill="#ffffff"/>
  
  <rect x="57" y="76" width="2" height="2" fill="#ffffff"/>
  <rect x="63" y="76" width="2" height="2" fill="#ffffff"/>
  
  <!-- Sparkle effects -->
  <path d="M15 25 L17 30 L22 28 L17 30 L15 35 L13 30 L8 28 L13 30 Z" fill="#fbbf24" opacity="0.8"/>
  <circle cx="80" cy="20" r="2" fill="#10b981" opacity="0.8"/>
  <circle cx="85" cy="30" r="1.5" fill="#ef4444" opacity="0.8"/>
  <circle cx="20" cy="70" r="1" fill="#8b5cf6" opacity="0.8"/>
</svg>