<svg width="200" height="150" viewBox="0 0 200 150" fill="none" xmlns="http://www.w3.org/2000/svg">
  <!-- Background Gradient -->
  <defs>
    <linearGradient id="bg" x1="0%" y1="0%" x2="100%" y2="100%">
      <stop offset="0%" style="stop-color:#0f172a"/>
      <stop offset="50%" style="stop-color:#111827"/>
      <stop offset="100%" style="stop-color:#0f172a"/>
    </linearGradient>
    <linearGradient id="accent" x1="0%" y1="0%" x2="100%" y2="0%">
      <stop offset="0%" style="stop-color:#3b82f6"/>
      <stop offset="100%" style="stop-color:#8b5cf6"/>
    </linearGradient>
  </defs>
  
  <rect width="200" height="150" fill="url(#bg)"/>
  
  <!-- Header -->
  <rect x="10" y="10" width="180" height="20" fill="#000000" fill-opacity="0.5" rx="4"/>
  <circle cx="20" cy="20" r="6" fill="#ffffff" fill-opacity="0.2"/>
  <rect x="30" y="16" width="40" height="3" fill="#ffffff" rx="1"/>
  <rect x="30" y="21" width="25" height="2" fill="#9ca3af" rx="1"/>
  
  <!-- Title -->
  <rect x="50" y="40" width="100" height="4" fill="#ffffff" rx="2"/>
  <rect x="75" y="48" width="50" height="2" fill="url(#accent)" rx="1"/>
  
  <!-- Image Cards Grid -->
  <!-- Row 1 -->
  <g>
    <!-- Card 1 -->
    <rect x="15" y="60" width="45" height="30" fill="#ffffff" fill-opacity="0.1" rx="6"/>
    <rect x="18" y="63" width="39" height="18" fill="#4b5563" rx="3"/>
    <circle cx="25" cy="67" r="2" fill="#fbbf24"/>
    <rect x="30" y="66" width="20" height="2" fill="#d1d5db" rx="1"/>
    <rect x="18" y="83" width="25" height="2" fill="#ffffff" rx="1"/>
    <rect x="18" y="87" width="15" height="1.5" fill="#9ca3af" rx="0.5"/>
    
    <!-- Card 2 -->
    <rect x="70" y="60" width="45" height="30" fill="#ffffff" fill-opacity="0.1" rx="6"/>
    <rect x="73" y="63" width="39" height="18" fill="#4b5563" rx="3"/>
    <circle cx="80" cy="67" r="2" fill="#ef4444"/>
    <rect x="85" y="66" width="20" height="2" fill="#d1d5db" rx="1"/>
    <rect x="73" y="83" width="30" height="2" fill="#ffffff" rx="1"/>
    <rect x="73" y="87" width="20" height="1.5" fill="#9ca3af" rx="0.5"/>
    
    <!-- Card 3 -->
    <rect x="125" y="60" width="45" height="30" fill="#ffffff" fill-opacity="0.1" rx="6"/>
    <rect x="128" y="63" width="39" height="18" fill="#4b5563" rx="3"/>
    <circle cx="135" cy="67" r="2" fill="#10b981"/>
    <rect x="140" y="66" width="20" height="2" fill="#d1d5db" rx="1"/>
    <rect x="128" y="83" width="28" height="2" fill="#ffffff" rx="1"/>
    <rect x="128" y="87" width="18" height="1.5" fill="#9ca3af" rx="0.5"/>
  </g>
  
  <!-- Row 2 -->
  <g>
    <!-- Card 4 -->
    <rect x="15" y="100" width="45" height="30" fill="#ffffff" fill-opacity="0.1" rx="6"/>
    <rect x="18" y="103" width="39" height="18" fill="#4b5563" rx="3"/>
    <circle cx="25" cy="107" r="2" fill="#8b5cf6"/>
    <rect x="30" y="106" width="20" height="2" fill="#d1d5db" rx="1"/>
    <rect x="18" y="123" width="22" height="2" fill="#ffffff" rx="1"/>
    <rect x="18" y="127" width="12" height="1.5" fill="#9ca3af" rx="0.5"/>
    
    <!-- Card 5 -->
    <rect x="70" y="100" width="45" height="30" fill="#ffffff" fill-opacity="0.1" rx="6"/>
    <rect x="73" y="103" width="39" height="18" fill="#4b5563" rx="3"/>
    <circle cx="80" cy="107" r="2" fill="#f59e0b"/>
    <rect x="85" y="106" width="20" height="2" fill="#d1d5db" rx="1"/>
    <rect x="73" y="123" width="32" height="2" fill="#ffffff" rx="1"/>
    <rect x="73" y="127" width="25" height="1.5" fill="#9ca3af" rx="0.5"/>
    
    <!-- Card 6 -->
    <rect x="125" y="100" width="45" height="30" fill="#ffffff" fill-opacity="0.1" rx="6"/>
    <rect x="128" y="103" width="39" height="18" fill="#4b5563" rx="3"/>
    <circle cx="135" cy="107" r="2" fill="#ec4899"/>
    <rect x="140" y="106" width="20" height="2" fill="#d1d5db" rx="1"/>
    <rect x="128" y="123" width="26" height="2" fill="#ffffff" rx="1"/>
    <rect x="128" y="127" width="16" height="1.5" fill="#9ca3af" rx="0.5"/>
  </g>
  
  <!-- Price badges on cards -->
  <rect x="45" y="65" width="12" height="6" fill="#000000" fill-opacity="0.7" rx="3"/>
  <rect x="100" y="65" width="12" height="6" fill="#000000" fill-opacity="0.7" rx="3"/>
  <rect x="155" y="65" width="12" height="6" fill="#000000" fill-opacity="0.7" rx="3"/>
  <rect x="45" y="105" width="12" height="6" fill="#000000" fill-opacity="0.7" rx="3"/>
  <rect x="100" y="105" width="12" height="6" fill="#000000" fill-opacity="0.7" rx="3"/>
  <rect x="155" y="105" width="12" height="6" fill="#000000" fill-opacity="0.7" rx="3"/>
</svg>